<?xml version="1.0" encoding="UTF-8"?>
<svg id="Layer_1" data-name="Layer 1" xmlns="http://www.w3.org/2000/svg" version="1.1" viewBox="0 0 110 135">
  <defs>
    <style>
      .cls-1 {
        fill: #fff;
        stroke-width: 0px;
      }
    </style>
  </defs>
  <path class="cls-1" d="M52.7,43.1c0-.5.4-.9.9-.9h18.4c.5,0,.9.4.9.9v7.1c0,.5-.4.9-.9.9s-.9-.4-.9-.9v-6.2h-17.4c-.5,0-.9-.4-.9-.9h0ZM72,83.1c-.5,0-.9.4-.9.9v5.5h-17.4c-.5,0-.9.4-.9.9s.4.9.9.9h18.4c.5,0,.9-.4.9-.9v-6.4c0-.5-.4-.9-.9-.9h0ZM93.5,77.4c0,2.6-1.8,4.8-4.1,4.8h-34.9c-2.2,0-4.1-2.1-4.1-4.8s.4-.9.9-.9h2v-21.2c0-1.4,1.1-2.5,2.5-2.5h32.2c1.4,0,2.5,1.1,2.5,2.5v21.2h2c.5,0,.9.4.9.9h0ZM55.3,76.5h33.4v-21.2c0-.3-.3-.6-.6-.6h-32.2c-.3,0-.6.3-.6.6v21.2ZM91.6,78.3h-39.1c.3,1.2,1.1,2,2.1,2h34.9c1,0,1.8-.9,2.1-2h0ZM81.7,63.9c.2.3.2.6,0,.9l-2,3.4c-.2.3-.5.5-.8.5h-3.4l-1.7,2.9c-.2.3-.5.5-.8.5h-3.4l-1.7,2.9c-.2.3-.5.5-.8.5s-.3,0-.5-.1c-.4-.3-.6-.8-.3-1.2l1.7-2.9-1.7-2.9c-.2-.3-.2-.6,0-.9l1.7-2.9-1.4-2.4h-3.4c-.5,0-.9-.4-.9-.9s.4-.9.9-.9h3.4l1.7-2.9c.2-.3.5-.5.8-.5h4c.3,0,.6.2.8.5l1.7,2.9h2.9l1.7-2.9c.3-.4.8-.6,1.3-.3.4.3.6.8.3,1.2l-1.7,2.9,1.7,2.9ZM68.2,61l1.4,2.4h2.9l1.4-2.5-1.4-2.4h-2.9l-1.4,2.4ZM73.9,67.7l-1.3-2.2-.2-.3h-2.9l-1.4,2.4,1.4,2.4h2.9l1.4-2.4ZM79.8,64.3l-1.4-2.4h-2.9l-1.4,2.4,1.3,2.2.2.3h2.9l1.4-2.4ZM47.3,94.5c0,.5-.4.9-.9,1,0,0,0,0,0,0-.5,0-.9-.4-.9-.9,0-.7-.1-1.3-.3-1.9h-13c-.1.6-.2,1.3-.3,1.9,0,.5-.4.9-.9.9s0,0,0,0c-.5,0-.9-.5-.9-1,.3-4.5,2.8-8.6,6.5-11.1-.8-.4-1.6-.8-2.3-1.2-4.2,3-6.7,7.5-6.9,12.4,0,.5-.4.9-.9.9s0,0,0,0c-.5,0-.9-.5-.9-1,.3-5.3,2.9-10.2,7.2-13.5-4.5-3.5-7.1-8.7-7.1-14.3s2.6-10.8,7.1-14.3c-4.3-3.3-6.9-8.1-7.2-13.5,0-.5.4-.9.9-1,.5,0,1,.4,1,.9.3,5,2.8,9.5,6.9,12.4.7-.5,1.5-.9,2.3-1.2-3.7-2.5-6.2-6.6-6.5-11.1,0-.5.4-.9.9-1s1,.3,1,.9c0,.7.1,1.3.3,1.9h13c.1-.6.2-1.3.3-1.9,0-.5.5-.9,1-.9.5,0,.9.5.9,1-.4,5.2-3.5,9.8-8.2,12,0,0,0,0-.1,0-1.5.5-2.9,1.2-4.2,2.1,0,0,0,0,0,0-4.6,3.1-7.4,8.2-7.4,13.6s2.8,10.5,7.4,13.6c1.3.9,2.7,1.6,4.2,2.1,0,0,0,0,.1,0,4.7,2.3,7.8,6.9,8.2,12h0ZM43.7,44.5c.3-.6.6-1.2.9-1.8h-11.8c.2.6.5,1.2.9,1.8h10ZM38.6,49.2c1.4-.7,2.7-1.7,3.7-2.9h-7.4c1,1.2,2.3,2.2,3.7,2.9ZM35,87.2h7.4c-1-1.2-2.3-2.2-3.7-2.9-1.4.7-2.7,1.7-3.7,2.9ZM44.6,90.9c-.2-.6-.5-1.2-.9-1.8h-10c-.3.6-.6,1.2-.9,1.8h11.8ZM51.9,94.5c0,.5-.4.9-.9,1,0,0,0,0,0,0-.5,0-.9-.4-.9-.9-.3-5.2-3-9.8-7.3-12.7,0,0-.1,0-.2-.1-1.2-.8-2.6-1.5-4.1-2,0,0,0,0-.1,0-5-2.4-8.2-7.5-8.2-13s3.2-10.6,8.2-13c0,0,0,0,.1,0,1.5-.5,2.8-1.2,4.1-2,0,0,.1,0,.2-.1,4.3-2.9,7.1-7.5,7.3-12.7,0-.5.5-.9,1-.9.5,0,.9.5.9,1-.2,3.7-1.5,7.2-3.9,10.2-1,1.2-2.1,2.3-3.3,3.2,4.5,3.5,7.1,8.7,7.1,14.3s-2.6,10.8-7.1,14.3c1.2.9,2.3,2,3.3,3.2,2.4,3,3.7,6.5,3.9,10.2h0ZM34.1,59.8h9.1c-1.1-1.7-2.7-3.2-4.6-4.2-1.9,1-3.4,2.4-4.6,4.2h0ZM32.3,63.8h12.7c-.2-.8-.4-1.5-.8-2.2h-11.2c-.3.7-.6,1.4-.8,2.2h0ZM32,67.9h13.3c0-.4,0-.7,0-1.1s0-.7,0-1.1h-13.3c0,.4,0,.7,0,1.1s0,.7,0,1.1h0ZM33.1,71.9h11.2c.3-.7.6-1.4.8-2.2h-12.7c.2.8.4,1.5.8,2.2h0ZM38.6,77.9c1.9-1,3.4-2.4,4.6-4.2h-9.1c1.1,1.7,2.7,3.2,4.6,4.2h0ZM43.1,80c4.3-3.1,6.9-8,6.9-13.2s-2.6-10.1-6.9-13.2c-.7.5-1.5.9-2.3,1.2,4,2.7,6.5,7.2,6.5,12s-2.5,9.3-6.5,12c.8.4,1.6.8,2.3,1.2h0Z"/>
</svg>